<?xml version="1.0" encoding="UTF-8"?>
<svg width="26px" height="26px" viewBox="0 0 26 26" version="1.1" xmlns="http://www.w3.org/2000/svg" xmlns:xlink="http://www.w3.org/1999/xlink">
    <!-- Generator: Sketch 64 (93537) - https://sketch.com -->
    <title>cards-screens-1@2x</title>
    <desc>Created with Sketch.</desc>
    <g id="cards-screens-1-blue" stroke="none" stroke-width="1" fill="none" fill-rule="evenodd">
        <g id="Group-9" fill="#076BC1" fill-rule="nonzero">
            <path d="M24,0 C25.1045695,0 26,0.8954305 26,2 L26,24 C26,25.1045695 25.1045695,26 24,26 L2,26 C0.8954305,26 0,25.1045695 0,24 L0,2 C0,0.8954305 0.8954305,0 2,0 L24,0 Z M24,1 L2,1 C1.48716416,1 1.06449284,1.38604019 1.00672773,1.88337887 L1,2 L1,24 C1,24.5128358 1.38604019,24.9355072 1.88337887,24.9932723 L2,25 L24,25 C24.5128358,25 24.9355072,24.6139598 24.9932723,24.1166211 L25,24 L25,2 C25,1.48716416 24.6139598,1.06449284 24.1166211,1.00672773 L24,1 Z" id="Rectangle"></path>
            <g id="Group-2" transform="translate(9.000000, 5.000000)">
                <polygon id="1" points="5.82 15 5.82 0.82 0.42 2.54 0.42 4.26 3.96 3.06 3.96 15"></polygon>
            </g>
        </g>
    </g>
</svg>