<?xml version="1.0" encoding="UTF-8"?>
<svg width="43px" height="26px" viewBox="0 0 43 26" version="1.1" xmlns="http://www.w3.org/2000/svg" xmlns:xlink="http://www.w3.org/1999/xlink">
    <g id="cards-quality-SD" stroke="none" stroke-width="1" fill="none" fill-rule="evenodd">
        <g id="Group" transform="translate(0.000000, 2.000000)" fill="#076BC1" fill-rule="nonzero">
            <path d="M30.416,1.42108547e-14 C32.6346778,1.42108547e-14 34.302864,0.472869111 35.9775391,1.39020703 C37.6522141,2.30754495 38.6554705,3.59819871 39.6048086,5.26220703 C40.5541467,6.92621535 41,8.73865536 41,11 C41,13.2613446 40.5541467,15.0879917 39.6048086,16.752 C38.6554705,18.4160083 37.6522141,19.7066621 35.9775391,20.624 C34.302864,21.5413379 32.6346778,22 30.416,22 L22,22 L22,1.42108547e-14 L30.416,1.42108547e-14 Z M9.09473684,0 C11.3894852,0 13.3157817,0.518767706 14.8736842,1.55631868 C16.4315867,2.59386966 17.3894719,4.10988014 17.7473684,6.1043956 L13.4526316,6.1043956 C13.2421042,5.25823753 12.7578985,4.62866507 12,4.21565934 C11.2421015,3.80265361 10.2842163,3.59615385 9.12631579,3.59615385 C7.84209884,3.59615385 6.83158263,3.82279993 6.09473684,4.2760989 C5.35789105,4.72939787 4.98947368,5.35897033 4.98947368,6.16483516 C4.98947368,6.89011352 5.26841826,7.45421044 5.82631579,7.85714286 C6.38421332,8.26007527 7.49472853,8.59248953 9.15789474,8.8543956 L11.5263158,9.21703297 C15.8421268,9.88187146 18,11.9267228 18,15.3516484 C18,16.7619118 17.6315826,17.9656544 16.8947368,18.9629121 C16.1578911,19.9601698 15.1421117,20.7156568 13.8473684,21.2293956 C12.5526251,21.7431344 11.0736925,22 9.41052632,22 C6.84209242,22 4.75263963,21.4359031 3.14210526,20.3076923 C1.53157089,19.1794815 0.484212947,17.6080687 0,15.5934066 L4.29473684,15.5934066 C4.56842242,16.4395647 5.15262711,17.1195029 6.04736842,17.6332418 C6.94210974,18.1469806 8.04209874,18.4038462 9.34736842,18.4038462 C10.5894799,18.4038462 11.6157854,18.1772001 12.4263158,17.7239011 C13.2368462,17.2706021 13.6421053,16.6108102 13.6421053,15.7445055 C13.6421053,15.24084 13.5263169,14.8026575 13.2947368,14.4299451 C13.0631567,14.0572326 12.6315821,13.7348915 12,13.4629121 C11.3684179,13.1909327 10.4526376,12.9642866 9.25263158,12.782967 L6.78947368,12.3901099 C4.74735821,12.067764 3.21579458,11.4432281 2.19473684,10.5164835 C1.17367911,9.58973896 0.663157895,8.26008192 0.663157895,6.52747253 C0.663157895,5.19779555 1.03683837,4.0444188 1.78421053,3.06730769 C2.53158268,2.09019658 3.54209889,1.33470963 4.81578947,0.800824176 C6.08948005,0.266938723 7.51578158,0 9.09473684,0 Z M29.9664307,3.536 L26,3.536 L26,18.192 L29.9664307,18.192 C31.3317708,18.192 32.5424254,17.9040029 33.5984307,17.328 C34.6544359,16.7519971 35.4864276,15.9200054 36.0944307,14.832 C36.7024337,13.7439946 37,12.5573411 37,11 C37,9.44265888 36.7024337,7.98400544 36.0944307,6.896 C35.4864276,5.80799456 34.6544359,4.97600288 33.5984307,4.4 C32.5424254,3.82399712 31.3317708,3.536 29.9664307,3.536 Z" id="Combined-Shape"></path>
        </g>
    </g>
</svg>