<?xml version="1.0" standalone="no"?>
<!DOCTYPE svg PUBLIC "-//W3C//DTD SVG 20010904//EN"
 "http://www.w3.org/TR/2001/REC-SVG-20010904/DTD/svg10.dtd">
<svg version="1.0" xmlns="http://www.w3.org/2000/svg"
 width="57.000000pt" height="57.000000pt" viewBox="0 0 57.000000 57.000000"
 preserveAspectRatio="xMidYMid meet">
<metadata>
Created by potrace 1.16, written by Peter Selinger 2001-2019
</metadata>
<g transform="translate(0.000000,57.000000) scale(0.100000,-0.100000)"
fill="#000000" stroke="none">
<path d="M0 285 l0 -285 150 0 150 0 0 110 0 110 -40 0 -40 0 0 40 0 40 40 0
40 0 0 56 c0 50 3 59 34 90 31 31 40 34 90 34 l56 0 0 -40 c0 -40 0 -40 -38
-40 -48 0 -62 -14 -62 -62 l0 -38 51 0 51 0 -6 -31 c-3 -17 -6 -35 -6 -40 0
-5 -20 -9 -45 -9 l-45 0 0 -110 0 -110 95 0 95 0 0 285 0 285 -285 0 -285 0 0
-285z"/>
</g>
</svg>
