<?xml version="1.0" encoding="UTF-8"?>
<svg width="53px" height="26px" viewBox="0 0 53 26" version="1.1" xmlns="http://www.w3.org/2000/svg" xmlns:xlink="http://www.w3.org/1999/xlink">
    <g id="cards-screens-4" stroke="none" stroke-width="1" fill="none" fill-rule="evenodd">
        <g id="Group-20" fill="#E50913" fill-rule="nonzero">
            <g id="Group-7" transform="translate(27.000000, 0.000000)">
                <path d="M24,0 C25.1045695,0 26,0.8954305 26,2 L26,24 C26,25.1045695 25.1045695,26 24,26 L2,26 C0.8954305,26 0,25.1045695 0,24 L0,2 C0,0.8954305 0.8954305,0 2,0 L24,0 Z M24,1 L2,1 C1.48716416,1 1.06449284,1.38604019 1.00672773,1.88337887 L1,2 L1,24 C1,24.5128358 1.38604019,24.9355072 1.88337887,24.9932723 L2,25 L24,25 C24.5128358,25 24.9355072,24.6139598 24.9932723,24.1166211 L25,24 L25,2 C25,1.48716416 24.6139598,1.06449284 24.1166211,1.00672773 L24,1 Z" id="Rectangle"></path>
                <path d="M16.36,20 L16.36,16.56 L18.54,16.56 L18.54,14.94 L16.36,14.94 L16.36,6.08 L14.6,6.08 L7.46,15.14 L7.46,16.56 L14.5,16.56 L14.5,20 L16.36,20 Z M14.5,14.94 L9.5,14.94 L14.5,8.6 L14.5,14.94 Z" id="4"></path>
            </g>
            <path d="M7.49992941,7.02216063e-15 C7.2814003,0.290888913 7.12485199,0.630999561 7.0498926,1.00072382 L2,1.00014977 C1.48716416,1.00014977 1.06449284,1.38618996 1.00672773,1.88352865 L1,2.00014977 L1,24.0001498 C1,24.5129856 1.38604019,24.9356569 1.88337887,24.993422 L2,25.0001498 L7.05009729,25.0005843 C7.12520747,25.3702666 7.28189401,25.7103155 7.50054687,26.0011211 L2,26.0001498 C0.8954305,26.0001498 4.70734562e-14,25.1047193 4.70734562e-14,24.0001498 L4.70734562e-14,2.00014977 C4.70734562e-14,0.895580273 0.8954305,0.000149772709 2,0.000149772709 Z" id="Combined-Shape"></path>
            <path d="M16.4999294,7.02216063e-15 C16.2814003,0.290888913 16.124852,0.630999561 16.0498926,1.00072382 L11,1.00014977 C10.4871642,1.00014977 10.0644928,1.38618996 10.0067277,1.88352865 L10,2.00014977 L10,24.0001498 C10,24.5129856 10.3860402,24.9356569 10.8833789,24.993422 L11,25.0001498 L16.0500973,25.0005843 C16.1252075,25.3702666 16.281894,25.7103155 16.5005469,26.0011211 L11,26.0001498 C9.8954305,26.0001498 9,25.1047193 9,24.0001498 L9,2.00014977 C9,0.895580273 9.8954305,0.000149772709 11,0.000149772709 Z" id="Combined-Shape"></path>
            <path d="M25.4999294,7.02216063e-15 C25.2814003,0.290888913 25.124852,0.630999561 25.0498926,1.00072382 L20,1.00014977 C19.4871642,1.00014977 19.0644928,1.38618996 19.0067277,1.88352865 L19,2.00014977 L19,24.0001498 C19,24.5129856 19.3860402,24.9356569 19.8833789,24.993422 L20,25.0001498 L25.0500973,25.0005843 C25.1252075,25.3702666 25.281894,25.7103155 25.5005469,26.0011211 L20,26.0001498 C18.8954305,26.0001498 18,25.1047193 18,24.0001498 L18,2.00014977 C18,0.895580273 18.8954305,0.000149772709 20,0.000149772709 Z" id="Combined-Shape"></path>
        </g>
    </g>
</svg>