<?xml version="1.0" encoding="UTF-8"?>
<svg width="43px" height="26px" viewBox="0 0 43 26" version="1.1" xmlns="http://www.w3.org/2000/svg" xmlns:xlink="http://www.w3.org/1999/xlink">
    <g id="cards-quality-HD" stroke="none" stroke-width="1" fill="none" fill-rule="evenodd">
        <path d="M-5.68434189e-14,24 L-5.68434189e-14,2 L4,2 L4,11 L15,11 L15,2 L19,2 L19,24 L15,24 L15,15 L4,15 L4,24 L-5.68434189e-14,24 Z M24,24 L24,2 L32.416,2 C34.6346778,2 36.302864,2.47286911 37.9775391,3.39020703 C39.6522141,4.30754495 40.6554705,5.59819871 41.6048086,7.26220703 C42.5541467,8.92621535 43,10.7386554 43,13 C43,15.2613446 42.5541467,17.0879917 41.6048086,18.752 C40.6554705,20.4160083 39.6522141,21.7066621 37.9775391,22.624 C36.302864,23.5413379 34.6346778,24 32.416,24 L24,24 Z M28,20.192 L31.9664307,20.192 C33.3317708,20.192 34.5424254,19.9040029 35.5984307,19.328 C36.6544359,18.7519971 37.4864276,17.9200054 38.0944307,16.832 C38.7024337,15.7439946 39,14.5573411 39,13 C39,11.4426589 38.7024337,9.98400544 38.0944307,8.896 C37.4864276,7.80799456 36.6544359,6.97600288 35.5984307,6.4 C34.5424254,5.82399712 33.3317708,5.536 31.9664307,5.536 L28,5.536 L28,20.192 Z" id="HD" fill="#AC1456" fill-rule="nonzero"></path>
    </g>
</svg>